# xmcd
#
# Track frame offsets: 
#        150
#        8950
#        16050
#        28659
#        41597
#        59342
#        70306
#        80536
#        100084
#        114504
#        126998
#
# Disc length: 1937 seconds
#
# Revision: 0
# Processed by: cddbd v1.5.1PL0 Copyright (c) Steve Scherf et al.
# Submitted via: ExactAudioCopy v0.95a5
#
DISCID=8a078f0b
DTITLE=Songshine - He's Our Hope!
DYEAR=2005
DGENRE=Gospel
TTITLE0=Soon And Very Soon
TTITLE1=Kyrie
TTITLE2=Hallelujah, Sing A Song
TTITLE3=Put Your Hand
TTITLE4=Lean On Me (Solo: Julia Hock)
TTITLE5=How Majestic Is Thy Name
TTITLE6=Dona Nobis Pacem
TTITLE7=From A Distance
TTITLE8=This Little Light Of Mine
TTITLE9=I Know The Lord Will Answer Prayer (Solo: Fabian Müller)
TTITLE10=He's Our Hope (Solos: Julia Schlett and Lisa Dümig)
EXTD=
EXTT0=
EXTT1=
EXTT2=
EXTT3=
EXTT4=
EXTT5=
EXTT6=
EXTT7=
EXTT8=
EXTT9=
EXTT10=
PLAYORDER=
